<?xml version="1.0" encoding="utf-8"?>
<!-- Generator: Adobe Illustrator 23.0.3, SVG Export Plug-In . SVG Version: 6.00 Build 0)  -->
<svg version="1.1" id="Layer_1" xmlns="http://www.w3.org/2000/svg" xmlns:xlink="http://www.w3.org/1999/xlink" x="0px" y="0px"
	 viewBox="0 0 1140 360" style="enable-background:new 0 0 1140 360;" xml:space="preserve">
<style type="text/css">
	.st0{fill:#1D4380;}
	.st1{fill:#BD9D52;}
</style>
<path class="st0" d="M0,0h1140v360H0V0z"/>
<g>
	<path class="st1" d="M236.2,274.2c5.7,1.7,12.1,1.1,18.1-1.8c-11.5-15.3-7.6-40.9,17.7-47.2c6.8-1.7,13.1-0.6,18.1,2.2
		c5.6-8.1,8.5-12.2,14.3-20.3c-3.3-23-0.4-38,16.1-41.3c12.6-2.5,18.5,8.7,7.7,22.6c-5,6.5-7.4,9.8-12.2,16.4
		c0.8,5.6,2,12.3,3.6,19.7c5.2,23.4-2.1,52.3-28.5,58.7c-13.6,3.3-24.3,0.4-31.6-5.4c-8.4,4.5-17.5,5.6-25.8,1.8
		C234.8,277.4,235.2,276.3,236.2,274.2 M263,266.2c2.3-2.3,4.5-4.9,6.5-7.9c6.3-9.8,9.5-14.6,16.1-24.3c-3.4-1.4-7.5-1.9-11.6-0.9
		C257.4,237.2,254.8,255.3,263,266.2 M268.4,271.2c5,3.4,11.9,4.7,20.6,2.6c18.6-4.5,24.2-23.8,19.2-46.9c-0.8-3.5-1.1-5.2-1.9-8.7
		c-4,5.6-6,8.5-9.9,14.1c6.4,7.3,7.9,18.1,1.1,26.4c-2.5-1.5-3.7-2.3-6.3-3.7c4.2-6.1,3.8-11.9,0.6-16.2c-6,8.8-9,13.2-14.7,22.1
		C274.4,264.9,271.6,268.4,268.4,271.2 M314.8,192.9c1.7-2.3,2.6-3.4,4.3-5.7c6.9-8.9,5-12.8,1.2-12
		C316.2,176,314.3,181.4,314.8,192.9 M385.2,227.2c1.1-0.2,2.1-0.1,3.1,0.2c4.7-9.4,9.3-21.7,12.7-36.3c3.3-0.5,5-0.7,8.3-1.1
		c-3.3,15-8.2,32-15.6,45c6.4-1,13-4.8,18.1-11.5c0.3-0.4,0.4-0.6,0.7-1c1.8,0.5,4.2,2,5.3,3.5c-5.5,8-16.6,14-24,15.1
		c-1.6,0.2-3,0.5-4.5,0.4c-5.6,7.5-12.5,12.8-21.1,14.3c-6.3,1.1-10.6-1.4-12.2-5.7c-5,5.6-10.7,9.9-15.5,10.8
		c-9.9,2-15.4-5.2-11.8-15c6.7-18.4,10.2-27.6,17.6-46c5.1-0.9,7.7-1.4,12.8-2.3c-8,19.6-11.8,29.4-19,49.2c-2,5.2,0,6.7,2.7,6.2
		c5.2-1,11.6-8,17.3-20.9c5.9-14.9,8.9-22.3,15.3-37.1c5.1-0.8,7.7-1.2,12.8-2c-8.4,19.4-12.4,29.2-20.1,48.7
		c-2.1,5.2-0.2,6.7,2.5,6.2c2.9-0.5,6.5-3.4,10.3-8.5c-1-1-1.7-2.4-2-4C378.3,231.6,381,227.9,385.2,227.2 M443.8,218.6
		c1.8,0.5,4.2,2.1,5.2,3.6c-9.2,12.6-19.7,24.5-30,25.8c-10,1.3-14.9-6.2-10.8-15.8c7.8-17.9,11.8-26.9,20.3-44.7
		c5.2-0.6,7.8-0.9,13-1.5c-9.2,19.1-13.6,28.6-22,47.8c-2.3,5.1-0.5,6.7,2.3,6.3c5.5-0.7,13.2-9.7,21.3-20.7
		C443.4,219.2,443.5,219,443.8,218.6 M441,166c4.3-0.5,8,2.3,8.4,6.2c0.4,3.9-2.7,7.2-7,7.7c-4.3,0.5-7.9-2.2-8.3-6.1
		C433.8,169.9,436.7,166.5,441,166 M535.3,212.1c1.7,0.6,4,2.4,4.9,4c-10.1,11.9-21.4,23-31.7,23.6c-10,0.6-14.3-7.3-9.6-16.5
		c5.8-11.2,8.8-16.9,15-28c5.7-10.2-6.6-12.3-28.1,21.3c-5,9.8-7.4,14.7-12.2,24.6c-5.1,0.4-7.6,0.7-12.7,1.2
		c8.6-18.1,13.1-27.2,22.4-45.1c5.3-10.2-6.8-12.1-27.2,21.3c-4.9,10.2-7.3,15.4-12.1,25.6c-5,0.6-7.5,0.8-12.5,1.4
		c9.2-20.6,18.9-41.1,29.2-61.1c5.2-0.5,7.8-0.7,13-1.1c-2.7,5.2-4,7.8-6.7,13.1c7.3-10.3,14.4-14.9,21.2-15.3
		c6.9-0.5,12.5,5.3,8.6,14c7.9-10.7,15.4-15.5,22.4-15.8c7.3-0.3,12.9,6,7.7,15.4c-6.9,12.4-10.3,18.7-16.9,31.2
		c-2.6,4.9-1,6.6,1.8,6.5c5.5-0.3,13.9-8.7,22.7-19C534.8,212.7,534.9,212.5,535.3,212.1 M611.8,161.9c-5.8,3.9-8.7,9.4-8.8,14.9
		c-0.1,6.8,3.8,13.4,11.2,17.3c8.4-12.7,12.7-18.9,21.5-31.5c6.4-9.2,15.4-13.4,22.7-12.9c9.9,0.6,17.2,8.2,16.4,19
		c-0.3,4.7-2.4,10.1-6.4,15.7c-11.4,15.8-27.1,21.4-40.7,20.9c-2.6-0.1-4.9-0.4-7.2-0.8c-4.8,7.2-7.1,10.9-11.7,18.1
		c-1.1,1.8-2.4,3.4-3.5,4.9c2.2,2.4,4.4,4.8,6.8,7.2c14.6,15,22,22.8,31.3,23.3c5.9,0.3,11.6-0.7,17.4-5.6c2.2,2.6,3.4,4,5.6,6.6
		c0,0-7.7,9.2-23.7,8.4c-17.2-0.9-31-19.8-44.3-33.2c-6.6,5.1-13.7,7.4-19.8,7.4c-11.8,0-17.6-7.4-17.8-14.9
		c-0.1-7.5,5.6-15.2,17.1-15.3c7.8,0,13.9,3.5,19.7,8.6c0.6-0.8,1.1-1.7,1.7-2.6c4.1-6.6,6.2-9.9,10.5-16.4
		c-10.4-5.2-16.1-14.5-16-24.2c0.1-8.1,4.3-16.3,13.9-22.2C609.3,157.6,610.1,159,611.8,161.9 M590.9,227.4c-4.8-4-9.6-6.6-14.2-6.6
		c-4.2,0-6.6,3-6.6,6c0,2.9,2.3,5.6,7.3,5.6C582.5,232.4,587,230.7,590.9,227.4 M625.3,197.4c1,0,1.6,0.1,2.6,0.1
		c20,0.8,35.9-18.4,36.6-29.5c0.3-4.4-1.8-7.5-6.8-7.8c-3.7-0.2-8.2,2.2-12.4,8.1C637.1,179.8,633.1,185.6,625.3,197.4 M668.7,217
		c-0.5,0.8-0.8,1.2-1.4,2c-6.5,9.3-2.2,14.2,5.5,14.7c8.8,0.7,21-6.3,31.1-15.3c0.4-0.3,0.6-0.5,0.9-0.8c1.6,0.9,3.6,2.9,4.3,4.6
		c-11.6,10.4-26.5,19.7-40.6,18.7c-14.7-1.1-20.8-13.1-12.1-25.4c5.8-8.3,8.8-12.4,14.8-20.6c6.1-8.4,14.9-12.8,25.4-11.8
		c10.6,1,16.5,9.9,8.5,20.3c-0.9,1.1-1.3,1.7-2.1,2.8C692,220.6,676.7,220.8,668.7,217 M672.8,211.4c4.7,2,12.8,2.9,19.8-6.4
		c0.8-1.1,1.3-1.7,2.1-2.8c8.8-11.7-4.2-14.9-12.6-3.6C678.4,203.7,676.5,206.3,672.8,211.4 M764.5,225c1.6,0.9,3.5,3.1,4.1,4.8
		c-12.1,9.8-25.3,18.7-35.5,17.4c-6.3-0.8-9.7-4.4-9.8-9.1c-6.5,4-13.1,6.4-18.1,5.9c-10-1-13-9.5-6.8-17.8
		c8.2-10.9,12.3-16.3,20.8-27.1c6.4-8.1,16.7-12,23.7-11.1c8.5,1.1,13.1,8.9,11.9,13.8c2.9,0.4,4.4,0.6,7.3,1
		c-10.2,12.2-15.2,18.4-25,30.8c-3.5,4.3-2.1,6.4,0.6,6.7c5.5,0.7,15.3-6,25.8-14.6C763.9,225.5,764.1,225.3,764.5,225 M709,230.4
		c-3.4,4.4-2,6.4,0.8,6.7c5.2,0.5,13.1-4,22.2-14.4c4.7-6,7.1-9,11.9-15c7.7-9.9-5.7-14.6-14-4.3C721.3,214.1,717.2,219.5,709,230.4
		 M771.7,254.4c1.7-2,2.6-3,4.3-5c-4.6,1.8-8.9,2.7-12.4,2.2c-10-1.5-12.6-10.1-6-18.2c8.7-10.5,13.1-15.7,22.1-26.1
		c6.8-7.8,17.3-11.2,24.3-10c8.1,1.4,12.3,8.9,11.4,13.8c3,0.6,4.5,0.8,7.5,1.4c-14.9,15.8-22.2,23.8-36.3,40.1
		c10.4-2.3,20.5-8,33-17.2c0.4-0.3,0.6-0.4,1-0.7c1.6,1,3.4,3.2,3.9,5c-16.7,12.3-30.6,18.4-44.1,20.1c-4.8,5.6-7.1,8.4-11.8,14.1
		c-11,13.2-28.3,8.3-26.7-3.1C743.1,261.8,754.3,256.6,771.7,254.4 M758.8,270.4c2.8-3.5,4.2-5.3,7-8.7c-9.8,2.1-13.3,5.3-13.7,8.3
		C751.5,273.1,755.5,274.4,758.8,270.4 M768,238c-3.6,4.2-2.3,6.3,0.4,6.7c5.3,0.8,13.6-3.6,23.2-13.8c4.9-5.6,7.4-8.4,12.3-14
		c8.1-9.6-5-14.9-13.8-5C781.2,222.3,776.7,227.5,768,238 M879.6,247.7c1.5,1.1,3.2,3.4,3.7,5.2c-13,8.6-27,16.2-37.1,14
		c-7.8-1.7-10.6-7.5-8.1-13.6c-7.1,4.2-15.8,8.5-22.6,7.2c-8.1-1.6-9.7-9.5-1.3-18.7c12.8-14.1,19.4-21.1,32.8-34.9
		c5.1,1.1,7.7,1.6,12.8,2.8c-13.5,13.7-20.2,20.7-33.1,34.7c-2.1,2.2-6,6-3.2,7.8c2.2,1.5,10.3-1.6,21.5-7.7
		c12-12.7,18.1-18.9,30.7-31.3c5.1,1.2,7.7,1.8,12.8,3.1c-15.2,14.7-22.6,22.2-37.1,37.4c-3.9,4-2.7,6.1,0,6.7
		c5.4,1.2,15.8-4.6,27.2-12.1C878.9,248.1,879.1,247.9,879.6,247.7 M889.9,252.9c-0.7,0.7-1,1-1.7,1.7c-8.1,7.9-4.7,13.5,2.8,15.5
		c8.6,2.2,21.9-2.4,33.5-9.5c0.4-0.3,0.7-0.4,1.1-0.6c1.5,1.1,3.1,3.5,3.5,5.3c-13.4,8.1-29.8,14.6-43.6,11.1
		c-14.4-3.7-18.3-16.7-7.5-27.2c7.3-7.1,10.9-10.6,18.4-17.6c7.5-7.1,17-9.9,27.3-7.1c10.4,2.9,14.6,12.8,4.8,21.5
		c-1,0.9-1.6,1.4-2.6,2.4C912.3,260.6,897.1,258,889.9,252.9 M895,248.1c4.3,2.8,12.1,5.1,20.7-2.7c1-1,1.6-1.4,2.6-2.4
		c10.8-10-1.6-15.4-11.9-5.8C901.8,241.5,899.5,243.7,895,248.1"/>
	<path class="st1" d="M550,341.1c0.2,0,0.4-0.2,0.4-0.4v-3.5c0-0.2,0.2-0.4,0.4-0.4h3.4c0.3,0,0.4,0.2,0.4,0.4v5.3
		c0,0.2-0.2,0.4-0.4,0.4h-17.2c-0.2,0-0.4-0.2-0.4-0.4v-2.8c0-1.2,0.7-2.2,1.5-2.6l11.4-6.7c0.4-0.3,0.8-0.8,0.8-1.3v-2.6
		c0-0.8-0.6-1.4-1.4-1.4h-6.6c-0.8,0-1.4,0.6-1.4,1.4v2.5c0,0.2-0.2,0.4-0.4,0.4h-3.5c-0.2,0-0.4-0.2-0.4-0.4v-2.8
		c0-1.6,1.3-2.8,2.8-2.8h12.4c1.6,0,2.8,1.3,2.8,2.8v1.9c0,1.2-0.7,2.2-1.5,2.7l-11.4,6.6c-0.4,0.3-0.8,0.8-0.8,1.3v2.2
		c0,0.2,0.1,0.4,0.4,0.4H550z"/>
	<path class="st1" d="M577.4,342.8h-12.3c-1.6,0-2.8-1.3-2.8-2.9v-13.9c0-1.6,1.3-2.8,2.8-2.8h12.3c1.6,0,2.9,1.3,2.9,2.8V340
		C580.3,341.5,579,342.8,577.4,342.8 M574.6,324.9h-6.6c-0.8,0-1.4,0.6-1.4,1.4v13.4c0,0.8,0.6,1.4,1.4,1.4h6.6
		c0.8,0,1.4-0.6,1.4-1.4v-13.4C576,325.6,575.4,324.9,574.6,324.9"/>
	<path class="st1" d="M592.7,323.2c1.6,0,2.9,1.2,2.9,2.8v16.4c0,0.2-0.2,0.4-0.4,0.4h-3.5c-0.2,0-0.4-0.2-0.4-0.4v-16.1
		c0-0.8-0.6-1.4-1.4-1.4h-2.4c-0.2,0-0.4-0.2-0.4-0.4v-0.9c0-0.2,0.2-0.4,0.4-0.4H592.7z"/>
	<path class="st1" d="M621.3,340c0,1.6-1.3,2.9-2.8,2.9h-12.3c-1.6,0-2.9-1.3-2.9-2.9v-2.8c0-0.2,0.2-0.4,0.4-0.4h3.5
		c0.2,0,0.4,0.2,0.4,0.4v2.6c0,0.8,0.6,1.4,1.4,1.4h6.7c0.8,0,1.4-0.6,1.4-1.4v-4.4c0-0.8-0.6-1.4-1.4-1.4h-9.5
		c-1.6,0-2.9-1.3-2.9-2.9v-5c0-1.6,1.3-2.8,2.9-2.8h12.3c1.6,0,2.8,1.3,2.8,2.8V340z M615.6,332.2c0.8,0,1.4-0.6,1.4-1.4v-4.4
		c0-0.8-0.6-1.4-1.4-1.4h-6.7c-0.8,0-1.4,0.6-1.4,1.4v4.4c0,0.8,0.6,1.4,1.4,1.4H615.6z"/>
	<path class="st1" d="M305.6,306.6c0,0,3.3,0.7,9.2,1.9c5.9,1.2,14.2,2.8,24.3,4.5c20.1,3.5,47.1,7.4,74.2,10
		c27.1,2.6,54.2,3.9,74.6,4.3c10.2,0.2,18.7,0.2,24.6,0.2c5.9,0,9.3-0.1,9.3-0.1l-0.2,13.2c0,0-3.4-0.2-9.4-0.5
		c-6-0.3-14.6-0.8-24.8-1.7c-20.5-1.6-47.8-4.6-74.9-8.9c-27.1-4.3-53.9-9.7-73.8-14.5c-10-2.3-18.3-4.5-24-6
		C308.9,307.5,305.6,306.6,305.6,306.6"/>
	
		<rect x="507" y="331.6" transform="matrix(4.136570e-02 -0.9991 0.9991 4.136570e-02 166.5214 841.3682)" class="st1" width="29.5" height="4.5"/>
	<path class="st1" d="M636.9,327.4c0,0,3.4,0,9.4,0.1c6,0,14.4,0,24.6-0.2c20.4-0.3,47.5-1.7,74.6-4.3c27.1-2.6,54.1-6.4,74.2-10
		c10.1-1.7,18.5-3.3,24.3-4.5c5.9-1.2,9.2-1.8,9.2-1.8s-3.3,0.9-9.1,2.4c-5.8,1.5-14,3.6-24,6c-19.9,4.8-46.7,10.2-73.8,14.5
		c-27.1,4.3-54.3,7.3-74.9,8.9c-10.2,0.8-18.9,1.4-24.8,1.7c-6,0.3-9.4,0.5-9.4,0.5L636.9,327.4z"/>
	
		<rect x="634.8" y="319.2" transform="matrix(0.9991 -4.136608e-02 4.136608e-02 0.9991 -13.267 26.6388)" class="st1" width="4.5" height="29.5"/>
	<path class="st1" d="M163.4,145.7c0,20.9-0.1,31.4-0.1,52.3c-8.1,2.7-12.1,4.1-20.2,6.9V14c8.3,0,12.4,0,20.6-0.1
		c12.6,0,21,3.2,25,9.6c4.1,6.4,6.1,18,6,35c-0.1,14.1-0.1,21.2-0.2,35.3c-0.1,16.7-2.1,28.7-6.1,36.1c-4,7.4-11.2,12.4-21.8,14.9
		C165.4,145.2,164.8,145.4,163.4,145.7 M174.1,97.1l0.1-38.3c0-5-0.4-8.4-1.2-10.2c-0.8-1.8-2.4-2.6-4.8-2.5
		c-1.8,0.1-2.7,0.2-4.6,0.3c0,21.9-0.1,43.7-0.1,65.6c1.8-0.3,2.7-0.5,4.5-0.8c2.4-0.4,4-1.6,4.8-3.6
		C173.7,105.6,174.1,102.1,174.1,97.1"/>
	<path class="st1" d="M209.6,183.5c0.3-56.6,0.6-113.2,0.9-169.8c8.2,0,12.3,0,20.5-0.1c-0.3,44.9-0.6,89.8-0.9,134.7
		c7.7-1.8,11.6-2.6,19.3-4.3c-0.1,11.4-0.1,17.1-0.2,28.5C233.3,176.7,225.4,178.9,209.6,183.5"/>
	<path class="st1" d="M261.7,169.3c4.7-51.9,9.5-103.9,14.4-155.8c13.1,0,19.7-0.1,32.8-0.1c3.9,47.5,7.9,95,12,142.4
		c-8.4,1.7-12.6,2.6-21,4.4c-0.8-14.2-1.2-21.4-2.1-35.7c-5.2,0.9-7.8,1.3-13,2.2c-1.1,14.9-1.7,22.4-2.8,37.5
		C274,166.3,269.9,167.3,261.7,169.3 M287,101.6c3.7-0.5,5.6-0.8,9.3-1.2c-1.3-23.2-2.6-46.4-3.8-69.6
		C290.6,54.4,288.8,78,287,101.6"/>
	<path class="st1" d="M356.2,149.2c-8.2,1.4-12.3,2.2-20.6,3.8c0.5-46.5,1-93.1,1.5-139.6c8.2,0,12.3,0,20.5,0
		C357.2,58.6,356.7,103.9,356.2,149.2"/>
	<path class="st1" d="M375.9,146c0.5-44.2,0.9-88.4,1.4-132.7c11.6,0,17.3,0,28.9-0.1c4.9,33.3,9.9,66.6,14.9,99.9
		c-0.1-33.3-0.2-66.6-0.2-99.9c7.4,0,11.1,0,18.6,0c-0.4,41.5-0.7,82.9-1.1,124.4c-11.6,1.3-17.4,2-28.9,3.5
		c-5.1-34.4-10.2-68.9-15.2-103.4c0.1,35.1,0.2,70.3,0.3,105.4C387.1,144.2,383.3,144.8,375.9,146"/>
	<path class="st1" d="M475.3,93.7c0,4.7-0.1,7-0.1,11.7c0,3.1,0.4,5.3,1.3,6.6c0.9,1.2,2.5,1.8,4.6,1.6c2.4-0.2,4-0.9,4.8-2.2
		c0.8-1.3,1.3-3.7,1.3-7.1c0-3.4,0-5.1,0.1-8.5c0-2.6-0.1-4.5-0.3-5.7c-0.2-1.2-0.6-2.3-1.2-3.3c-1.3-2.2-4.4-3.9-9.3-5.1
		c-2.2-0.5-3.9-1-5.2-1.5c-5.7-2-9.6-4.9-11.7-8.8c-2.1-3.9-3.1-10.3-3.1-19c0-4.5,0.1-6.8,0.1-11.3c0.1-11,1.7-18.7,4.8-23.1
		c3.1-4.3,8.4-6.5,16-6.5h6c4.7,0,8.6,0.6,11.7,1.7c3,1.1,5.4,2.9,7.1,5.2c1.4,1.9,2.3,4.2,2.9,7.1c0.5,2.9,0.8,7.5,0.8,13.8
		c0,3.7,0,5.5,0,9.2c-7.3,0.1-11,0.2-18.3,0.4c0-3,0-4.5,0-7.5c0-3.8-0.3-6.3-1-7.5c-0.7-1.2-2.2-1.8-4.5-1.8
		c-2.2,0-3.7,0.6-4.4,1.8c-0.8,1.2-1.2,3.4-1.2,6.6c0,3.1,0,4.7-0.1,7.8c0,5.9,3.6,10,11,12.4c2.1,0.7,3.8,1.3,5,1.7
		c5.7,2,9.5,4.9,11.6,8.7c2.1,3.8,3.1,9.8,3.1,18.1c0,6.4-0.1,9.6-0.1,16c-0.1,9.9-1.9,17.1-5.4,21.7c-3.6,4.6-9.3,7.1-17.3,7.7
		c-2.2,0.2-3.3,0.2-5.5,0.4c-8.8,0.7-14.8-0.8-18-4.6c-3.3-3.8-4.8-11.3-4.7-22.4c0-5.3,0.1-8,0.1-13.4
		C463.9,94.3,467.7,94.1,475.3,93.7"/>
	<path class="st1" d="M562.6,65.5c-2.2,0-3.3,0-5.5,0c0-7.2,0-10.9,0-18.1c2.2,0,3.3,0,5.5,0c0-8.8,0-13.1,0-21.9
		c7.2,0,10.9,0,18.1,0c0,8.7,0,13.1,0,21.9c4.1,0,6.1,0,10.2,0c0,7.2,0,10.9,0,18.1c-4.1,0-6.1,0-10.2,0c0,15.4,0,23.1,0,38.4
		c0,3.1,0.5,5.4,1.6,6.9c1.1,1.4,2.8,2.2,5.2,2.2c0.6,0,1.1,0,1.4,0c0.3,0,0.6-0.1,0.9-0.1c0,7.1,0,10.6,0.1,17.7
		c-1.9,0.4-3.6,0.6-5.2,0.8c-1.6,0.2-3.1,0.3-4.5,0.3c-6.9,0-11.5-1.6-14-4.9c-2.5-3.3-3.7-10.1-3.7-20.3
		C562.6,90.1,562.6,81.9,562.6,65.5"/>
	<path class="st1" d="M623.7,91.4c0,4.6,0,6.8,0,11.4c0,3.1,0.5,5.2,1.4,6.5c0.9,1.3,2.5,2,4.7,2c2.4,0.1,4-0.5,4.8-1.7
		c0.8-1.2,1.2-3.5,1.2-6.9c0-3.3,0-5,0-8.3c0-2.5-0.1-4.4-0.4-5.7c-0.2-1.2-0.6-2.3-1.2-3.3c-1.4-2.2-4.5-4.1-9.4-5.6
		c-2.2-0.7-4-1.3-5.2-1.8c-5.7-2.3-9.7-5.3-11.8-9.2c-2.2-3.9-3.2-10-3.3-18.3l0-10.8c0-10.5,1.5-17.8,4.6-22
		c3.1-4.1,8.4-6.2,15.9-6.2h6c4.7,0,8.6,0.5,11.7,1.6c3,1.1,5.4,2.9,7.2,5.2c1.4,1.9,2.4,4.2,2.9,7.1c0.6,2.9,0.9,7.5,0.9,13.9
		c0,3.7,0,5.5,0,9.2c-7.3-0.1-11-0.2-18.3-0.3c0-3,0-4.4,0-7.4c0-3.7-0.4-6.2-1.1-7.4c-0.7-1.2-2.2-1.8-4.5-1.9
		c-2.2,0-3.7,0.5-4.4,1.7c-0.8,1.1-1.1,3.2-1.1,6.4c0,3,0,4.6,0,7.6c0,5.8,3.7,9.9,11.1,12.5c2.1,0.8,3.8,1.4,5,1.9
		c5.7,2.2,9.6,5.3,11.7,9.2c2.1,3.9,3.2,10,3.3,18.4c0,6.4,0.1,9.6,0.1,16c0.1,9.9-1.7,17-5.2,21.2c-3.5,4.2-9.2,6-17.2,5.7
		c-2.2-0.1-3.3-0.1-5.5-0.2c-8.8-0.3-14.8-2.5-18.1-6.5c-3.3-4-5-11.3-5-21.9c0-5.1,0-7.7,0-12.8C612.3,91.1,616.1,91.2,623.7,91.4"
		/>
	<path class="st1" d="M672.2,13.1c8.2,0,12.3,0,20.6,0c0.2,30.9,0.5,61.8,0.7,92.7c0,3.4,0.4,5.7,1.1,6.9c0.7,1.2,2.2,1.9,4.4,2.1
		c2.2,0.2,3.6-0.3,4.4-1.4c0.7-1.1,1.1-3.4,1-6.8c-0.3-31.2-0.5-62.3-0.8-93.5c7.9,0,11.8,0,19.7,0c0.3,28.2,0.5,56.4,0.8,84.6
		c0.1,9.8-0.2,16.9-0.9,21.3c-0.7,4.4-1.8,8.2-3.5,11.1c-1.7,3-4.2,5.1-7.3,6.1c-3.1,1-7.7,1.2-13.9,0.6c-6.3-0.6-11-1.6-14-3.2
		c-3-1.6-5.4-4-7.2-7.2c-1.7-3-2.8-6.7-3.6-11c-0.7-4.3-1.1-11.3-1.2-20.9C672.5,67.4,672.4,40.3,672.2,13.1"/>
	<path class="st1" d="M743.2,140.3c-0.4-42.3-0.8-84.7-1.2-127c11.6,0,17.3,0,28.9,0c5.8,35.2,11.4,70.4,17,105.6
		c-0.8-35.2-1.5-70.4-2.3-105.5c7.4,0,11.1,0,18.6,0c0.5,45.5,1,91,1.4,136.4c-11.5-2-17.3-3-28.8-4.8
		c-5.7-35.8-11.5-71.6-17.3-107.4c0.8,35.1,1.6,70.2,2.4,105.2C754.4,141.7,750.7,141.2,743.2,140.3"/>
	<path class="st1" d="M820,152.4c3.9-46.3,7.8-92.7,11.6-139c13.1,0,19.7,0,32.8,0.1c5,50.5,10,101,14.9,151.5
		c-8.4-2-12.6-2.9-20.9-4.8c-1.1-14.6-1.7-21.9-2.8-36.5c-5.2-0.9-7.8-1.3-13-2.1c-0.8,14-1.2,20.9-2.1,34.8
		C832.3,154.8,828.2,153.9,820,152.4 M844.2,98c3.7,0.5,5.6,0.7,9.3,1.2c-1.7-23-3.4-46-5.2-69C846.9,52.8,845.6,75.4,844.2,98"/>
	<path class="st1" d="M893.7,168.5c-0.4-51.6-0.9-103.3-1.3-154.9c11.9,0,17.8,0.1,29.7,0.1c4.3,43.6,8.5,87.2,12.6,130.8
		c3.9-43.6,7.7-87.2,11.6-130.8c11.7,0,17.5,0.1,29.2,0.1c0.2,59.3,0.4,118.6,0.6,177.9c-7.3-2.3-11-3.5-18.3-5.7
		c0.2-48.5,0.4-97,0.5-145.6c-4.2,47.3-8.5,94.6-12.8,141.9c-9-2.6-13.5-3.9-22.5-6.3c-4.6-46-9.3-91.9-14.2-137.9
		c0.8,44.9,1.7,89.8,2.5,134.8C904.3,171.1,900.8,170.2,893.7,168.5"/>
	<path class="st1" d="M1015.6,204.9c-8.1-2.8-12.1-4.2-20.2-6.9c-0.1-61.4-0.2-122.7-0.3-184.1c8.2,0,12.3,0,20.5,0.1V204.9z"/>
</g>
</svg>
