<?xml version="1.0" standalone="no"?>
<!DOCTYPE svg PUBLIC "-//W3C//DTD SVG 20010904//EN"
 "http://www.w3.org/TR/2001/REC-SVG-20010904/DTD/svg10.dtd">
<svg version="1.0" xmlns="http://www.w3.org/2000/svg"
 width="2063.000000pt" height="2063.000000pt" viewBox="0 0 2063.000000 2063.000000"
 preserveAspectRatio="xMidYMid meet">
<metadata>
Created by potrace 1.14, written by Peter Selinger 2001-2017
</metadata>
<g transform="translate(0.000000,2063.000000) scale(0.100000,-0.100000)"
fill="#000000" stroke="none">
<path d="M16710 17363 c-8 -2 -35 -13 -60 -23 -25 -10 -63 -21 -85 -24 -22 -3
-62 -11 -90 -16 -27 -5 -63 -12 -79 -14 -16 -3 -52 -10 -80 -15 -28 -6 -67
-13 -86 -15 -19 -3 -44 -7 -55 -10 -11 -2 -63 -11 -115 -20 -139 -24 -147 -25
-235 -41 -126 -23 -297 -54 -335 -60 -19 -3 -57 -10 -85 -15 -27 -5 -66 -12
-85 -15 -19 -3 -46 -8 -60 -10 -14 -3 -34 -7 -45 -9 -27 -5 -215 -38 -240 -42
-11 -2 -47 -8 -80 -14 -82 -15 -176 -32 -200 -36 -11 -1 -96 -16 -190 -33 -93
-17 -210 -37 -260 -46 -49 -8 -112 -20 -140 -25 -27 -5 -67 -12 -89 -15 -21
-3 -41 -7 -45 -9 -3 -2 -26 -7 -51 -10 -25 -3 -56 -8 -70 -11 -14 -3 -51 -9
-82 -15 -32 -6 -70 -12 -85 -15 -16 -3 -91 -16 -168 -30 -77 -13 -153 -27
-170 -30 -28 -5 -214 -38 -280 -50 -16 -2 -39 -7 -50 -9 -11 -2 -63 -11 -115
-20 -107 -18 -132 -23 -175 -31 -16 -3 -46 -8 -65 -11 -19 -3 -107 -19 -195
-34 -88 -16 -176 -32 -195 -35 -50 -8 -102 -17 -125 -21 -93 -18 -304 -56
-320 -59 -11 -1 -63 -10 -115 -19 -52 -10 -106 -19 -120 -21 -14 -3 -36 -7
-50 -10 -14 -3 -38 -7 -55 -9 -16 -3 -52 -9 -80 -15 -27 -5 -70 -12 -95 -16
-25 -3 -63 -10 -85 -15 -22 -5 -62 -12 -90 -16 -27 -3 -52 -8 -55 -9 -3 -2
-24 -6 -46 -9 -22 -4 -51 -9 -64 -11 -21 -4 -114 -21 -220 -39 -38 -7 -153
-28 -175 -32 -18 -3 -155 -27 -395 -70 -47 -8 -98 -17 -115 -20 -16 -2 -68
-12 -115 -20 -47 -9 -94 -18 -105 -20 -97 -16 -315 -54 -335 -58 -14 -3 -54
-10 -90 -16 -36 -7 -75 -14 -88 -16 -36 -7 -142 -48 -207 -82 -281 -142 -571
-494 -675 -820 -17 -51 -33 -110 -36 -130 -3 -20 -9 -56 -14 -79 -9 -49 -6
-266 5 -333 22 -143 81 -324 130 -397 41 -61 125 -202 125 -209 0 -2 18 -34
40 -70 22 -36 40 -68 40 -70 0 -2 29 -55 64 -117 79 -139 97 -172 153 -272 24
-44 52 -93 62 -110 10 -16 32 -57 51 -90 18 -33 40 -73 50 -90 10 -16 69 -122
132 -235 63 -113 146 -261 185 -330 38 -69 82 -146 96 -172 59 -105 85 -151
190 -338 60 -107 121 -215 135 -240 14 -25 84 -151 157 -280 72 -129 145 -257
160 -285 15 -27 44 -79 63 -115 19 -36 40 -72 47 -80 6 -8 26 -44 45 -80 18
-36 43 -81 55 -100 12 -19 42 -74 68 -121 35 -65 43 -89 35 -97 -7 -7 -15 -12
-19 -12 -4 0 -38 -17 -76 -39 -37 -21 -93 -52 -123 -68 -30 -17 -80 -44 -110
-60 -64 -35 -896 -490 -985 -538 -33 -18 -127 -70 -210 -115 -82 -46 -179 -99
-215 -118 -36 -19 -78 -43 -95 -52 -16 -9 -70 -38 -120 -65 -49 -26 -103 -56
-120 -65 -33 -19 -94 -53 -195 -108 -36 -19 -132 -72 -215 -117 -82 -45 -190
-104 -240 -130 -49 -26 -94 -51 -100 -55 -5 -4 -41 -24 -80 -45 -128 -69 -180
-97 -210 -115 -16 -10 -66 -37 -110 -60 -118 -63 -175 -94 -225 -122 -62 -35
-448 -246 -545 -298 -44 -24 -120 -66 -170 -93 -49 -27 -124 -68 -165 -90 -41
-22 -88 -47 -105 -57 -16 -10 -56 -32 -87 -49 -81 -44 -159 -86 -220 -120 -29
-16 -80 -43 -113 -61 -99 -53 -381 -207 -530 -290 -180 -99 -244 -134 -332
-181 -40 -21 -87 -48 -105 -59 -18 -11 -40 -23 -48 -27 -13 -5 -156 -83 -375
-203 -197 -107 -279 -152 -340 -185 -38 -21 -108 -59 -155 -85 -47 -26 -125
-69 -175 -95 -49 -27 -112 -61 -138 -77 -26 -15 -51 -28 -55 -28 -4 0 -15 -7
-25 -14 -15 -12 -6 -16 80 -36 143 -33 431 -131 468 -159 24 -19 363 -145 418
-156 9 -2 21 -6 25 -9 5 -3 19 -7 33 -10 13 -4 81 -19 150 -35 70 -16 151 -32
180 -36 30 -4 64 -8 77 -10 150 -21 463 -27 622 -12 119 12 297 43 413 73 180
46 309 93 542 199 153 69 178 79 320 127 125 41 390 112 460 122 23 4 52 9 65
11 14 3 45 8 70 11 25 3 56 7 70 10 124 22 549 22 680 0 14 -2 46 -7 71 -10
136 -19 414 -81 479 -106 14 -6 34 -12 45 -14 20 -4 150 -49 190 -65 11 -5 52
-21 90 -37 39 -15 97 -40 130 -55 202 -92 469 -180 650 -215 11 -2 31 -6 45
-9 35 -7 58 -11 113 -19 27 -4 57 -9 66 -11 130 -25 646 -25 723 0 7 2 36 6
65 9 190 21 510 120 753 233 121 56 342 144 395 157 6 2 37 11 70 21 33 10 65
20 70 21 6 1 53 13 105 27 52 14 111 28 130 31 19 3 46 8 60 11 13 3 42 7 65
10 22 3 47 8 55 10 8 2 44 7 80 10 365 38 703 17 1035 -64 22 -5 49 -11 60
-14 142 -34 419 -132 560 -197 229 -106 348 -150 545 -201 243 -62 429 -84
710 -83 189 0 280 8 435 35 196 35 472 115 468 135 -1 5 -65 124 -144 264 -78
140 -155 280 -172 310 -16 30 -35 64 -42 75 -6 11 -27 47 -45 80 -48 87 -418
751 -442 794 -26 45 -56 98 -98 176 -55 100 -150 269 -160 285 -5 8 -23 41
-40 73 -17 32 -40 72 -50 90 -11 17 -23 39 -27 47 -4 8 -56 103 -116 210 -61
107 -122 218 -137 245 -15 28 -37 67 -49 88 -37 65 -57 100 -91 162 -18 33
-42 76 -53 95 -11 19 -38 69 -60 110 -22 41 -43 80 -47 85 -4 6 -99 174 -210
375 -112 201 -211 379 -220 395 -23 41 -163 292 -187 335 -11 19 -100 179
-198 355 -98 176 -186 334 -195 350 -9 17 -63 113 -120 215 -56 102 -114 205
-128 230 -178 319 -322 577 -350 630 -20 36 -46 82 -59 102 -13 21 -23 40 -23
43 0 2 -20 39 -45 81 -25 41 -45 77 -45 79 0 1 -20 38 -44 81 -24 44 -61 108
-81 144 -20 36 -39 73 -42 83 -3 9 -9 17 -14 17 -5 0 -9 4 -9 9 0 4 -65 125
-144 267 -80 142 -143 261 -141 263 4 3 80 18 236 46 14 3 97 18 184 35 87 17
172 33 189 35 17 3 65 12 106 20 41 8 89 17 106 20 17 2 66 12 110 20 43 9 88
18 99 19 11 2 63 11 115 21 52 10 104 19 115 21 11 1 70 12 130 24 61 11 124
23 140 25 17 3 41 8 55 10 56 12 81 16 210 40 74 14 146 27 160 30 14 3 39 8
55 10 25 5 365 68 430 81 11 2 36 7 55 10 19 3 80 14 135 24 112 22 109 21
295 55 74 14 151 28 170 31 19 3 51 9 70 14 19 5 53 11 75 14 22 4 51 8 65 11
42 9 71 14 160 31 47 8 166 30 265 49 99 19 196 37 215 40 19 3 67 12 105 20
39 8 93 17 120 21 28 3 53 8 56 10 4 2 24 6 45 10 22 3 73 12 114 21 41 8 98
19 125 24 28 4 64 11 80 14 17 3 66 12 110 20 156 29 197 39 301 76 353 125
629 372 784 702 38 81 86 229 96 297 3 19 7 42 9 50 17 66 24 296 12 400 -17
144 -51 264 -113 400 -104 224 -312 461 -539 612 -125 82 -306 162 -415 182
-14 2 -27 5 -30 6 -3 2 -8 2 -11 2 -4 -1 -22 3 -40 9 -36 10 -283 20 -309 12z"/>
<path d="M17447 12994 c-1 -1 -47 -5 -102 -8 -55 -4 -111 -8 -125 -10 -14 -2
-48 -7 -76 -10 -28 -4 -61 -9 -75 -11 -405 -77 -726 -220 -1039 -464 -112 -87
-293 -263 -392 -381 -87 -104 -224 -305 -283 -415 -78 -148 -152 -341 -194
-510 -20 -77 -23 -94 -37 -180 -3 -22 -7 -42 -9 -45 -2 -3 -6 -46 -10 -95 -4
-49 -9 -98 -11 -109 -5 -25 -4 -343 1 -401 6 -68 14 -138 21 -180 3 -22 8 -53
10 -70 18 -115 73 -324 123 -460 33 -89 150 -319 206 -405 44 -68 131 -187
145 -200 3 -3 30 -34 60 -70 190 -226 479 -449 745 -574 123 -58 306 -125 414
-152 110 -27 231 -50 311 -60 25 -3 56 -7 69 -9 103 -18 446 -24 573 -11 35 4
86 9 113 12 28 3 95 15 150 26 55 11 111 22 123 24 13 3 86 25 161 50 338 111
655 309 927 579 255 254 442 531 562 836 41 102 101 312 117 409 3 19 10 60
15 90 16 90 25 235 24 390 0 213 -16 371 -56 540 -11 47 -22 96 -24 109 -3 13
-9 31 -13 40 -5 9 -10 21 -10 26 -4 37 -69 209 -115 305 -86 181 -210 372
-340 524 -84 100 -249 261 -337 332 -41 32 -76 62 -79 65 -10 13 -237 157
-303 193 -224 121 -527 221 -767 251 -25 3 -61 8 -80 10 -77 10 -386 24 -393
19z"/>
<path d="M2598 5286 c-1 -2 -73 -6 -158 -9 -85 -4 -164 -8 -175 -10 -11 -3
-47 -8 -80 -12 -50 -5 -145 -22 -284 -51 -36 -7 -173 -44 -191 -51 -8 -3 -19
-7 -25 -8 -38 -9 -277 -101 -350 -135 -309 -143 -635 -245 -880 -275 -27 -4
-57 -8 -65 -10 -14 -4 -118 -14 -215 -20 -22 -2 -70 -4 -106 -4 l-66 -1 0
-922 c-1 -508 1 -931 4 -941 4 -17 14 -18 116 -13 171 9 360 32 492 60 210 45
458 127 645 213 285 132 572 224 835 267 37 6 168 23 250 32 67 8 405 8 475 0
25 -2 74 -7 110 -11 154 -16 525 -98 605 -134 11 -5 61 -24 110 -42 50 -18
153 -61 230 -97 201 -92 415 -173 519 -197 140 -32 253 -55 288 -60 24 -3 54
-8 68 -10 116 -20 483 -27 650 -12 70 6 249 33 335 51 94 19 330 90 390 116
11 5 52 22 90 38 39 16 99 43 135 60 83 39 116 52 218 91 77 29 119 43 307
100 75 23 328 75 414 86 30 4 63 9 75 11 12 2 77 7 146 11 360 19 606 -4 970
-92 125 -30 370 -122 550 -205 257 -120 493 -197 717 -234 204 -35 227 -37
463 -40 184 -3 275 1 420 19 241 30 540 115 763 216 284 129 495 209 672 253
85 21 252 54 312 61 27 3 60 8 74 10 82 17 366 22 544 12 128 -8 151 -11 260
-28 39 -6 84 -13 100 -15 210 -33 571 -147 805 -256 47 -22 119 -53 160 -70
41 -17 89 -37 107 -44 17 -8 46 -17 65 -20 18 -4 38 -10 43 -14 8 -6 39 -16
80 -25 6 -2 37 -10 70 -19 94 -24 196 -44 261 -51 32 -4 61 -8 64 -10 15 -9
195 -19 365 -19 192 -1 363 10 455 29 14 3 39 7 55 9 41 5 232 51 320 77 90
27 274 99 395 156 131 62 197 89 325 135 97 35 323 98 402 113 15 2 37 7 48 9
286 56 605 64 935 26 159 -19 502 -95 585 -130 11 -5 45 -16 75 -26 58 -18
195 -71 270 -106 116 -53 232 -103 302 -129 130 -48 376 -114 463 -125 17 -2
57 -8 89 -13 83 -15 215 -25 321 -26 l90 0 1 938 1 937 -81 1 c-45 0 -97 2
-116 4 -19 2 -64 7 -100 10 -36 3 -76 7 -90 9 -14 3 -68 12 -120 21 -237 40
-479 120 -760 253 -286 135 -662 239 -965 267 -38 4 -83 9 -100 11 -42 6 -401
6 -450 0 -22 -2 -71 -7 -110 -11 -38 -3 -95 -10 -125 -15 -30 -5 -71 -11 -90
-14 -19 -3 -66 -12 -105 -22 -38 -9 -80 -18 -93 -20 -39 -8 -254 -74 -327
-101 -38 -14 -144 -58 -235 -98 -206 -90 -329 -137 -478 -179 -122 -35 -285
-72 -362 -82 -25 -3 -51 -7 -57 -9 -78 -26 -709 -26 -753 0 -3 1 -30 5 -60 9
-61 7 -111 17 -250 53 -52 14 -102 26 -110 28 -62 14 -255 90 -395 155 -198
92 -497 197 -645 226 -14 3 -50 11 -80 19 -52 13 -177 34 -300 52 -72 10 -556
10 -640 0 -36 -4 -87 -10 -115 -13 -40 -5 -194 -33 -316 -59 -35 -7 -170 -48
-269 -82 -96 -33 -178 -67 -440 -183 -219 -97 -431 -159 -704 -204 -126 -21
-526 -29 -674 -13 -350 38 -640 122 -1022 294 -132 60 -325 130 -450 164 -25
7 -49 14 -55 15 -5 2 -21 5 -35 8 -14 3 -65 15 -115 25 -131 29 -255 46 -405
56 -84 6 -372 6 -430 1 -25 -3 -79 -7 -120 -11 -41 -3 -82 -8 -90 -10 -8 -2
-35 -7 -60 -10 -44 -6 -95 -14 -115 -19 -5 -1 -37 -8 -70 -15 -208 -44 -433
-122 -670 -231 -153 -71 -167 -76 -280 -119 -106 -39 -337 -103 -420 -115 -36
-6 -76 -12 -130 -22 -148 -27 -578 -26 -760 1 -113 18 -211 36 -285 54 -25 7
-55 14 -67 16 -25 6 -267 85 -329 109 -23 8 -109 45 -190 81 -240 107 -420
171 -609 215 -106 25 -107 25 -165 35 -25 4 -54 9 -65 11 -11 2 -42 7 -70 10
-27 3 -61 8 -75 10 -14 2 -83 7 -155 10 -71 3 -135 7 -142 9 -6 2 -13 2 -15 1z"/>
</g>
</svg>
